# Blender v2.76 (sub 0) OBJ File: ''
# www.blender.org
o cockpit_light
v 0.245892 0.099345 -1.958947
v -0.294802 -0.487187 -1.182976
v -0.312360 0.093829 -1.950351
v 0.263435 -0.481667 -1.191579
vt 0.000000 0.000000
vt 0.998047 0.998047
vt 0.998047 0.000000
vt 0.000000 0.998047
vn -0.001400 -0.797300 -0.603600
s off
f 1/1/1 2/2/1 3/3/1
f 1/1/1 4/4/1 2/2/1
o cockpit_metal
v -0.294803 -0.487187 -1.182976
v -2.978938 -0.009903 -0.658626
v -0.312361 0.093829 -1.950351
v 0.245891 0.099345 -1.958947
v 2.952484 0.048706 -0.749968
v 0.263434 -0.481667 -1.191579
v -0.278922 0.158724 2.530430
v -0.674063 -0.336239 1.485480
v 0.721590 -0.322452 1.463999
v 0.349112 0.164929 2.520762
v -0.312558 0.587229 0.621176
v 0.315475 0.593433 0.611510
vt 0.998047 1.000000
vt 0.998047 0.000000
vt 0.000000 1.000000
vt 1.000000 0.000000
vt 1.000000 1.000000
vt 0.279297 0.158203
vt 0.718750 0.158203
vt 1.093750 -1.076172
vt -0.066406 -1.076172
vt 0.000000 0.998047
vn -0.251100 -0.774500 -0.580600
vn 0.248400 -0.769500 -0.588300
vn 0.015500 -0.905900 0.423200
vn -0.012600 0.982000 -0.188400
s off
f 5/5/2 6/6/2 7/7/2
f 8/7/3 9/8/3 10/9/3
f 11/10/4 12/7/4 13/5/4
f 11/10/4 13/5/4 14/11/4
f 7/9/5 15/12/5 16/13/5
f 7/9/5 16/13/5 8/14/5
o cockpit_cyan
v 0.696424 0.167929 0.145723
v 0.263435 -0.481667 -1.191580
v 2.952485 0.048706 -0.749969
v 0.245892 0.099345 -1.958947
v -2.978937 -0.009903 -0.658626
v -0.294802 -0.487187 -1.182977
v -0.699197 0.154137 0.167215
v -0.312360 0.093829 -1.950351
vt 1.000000 1.000000
vt 0.000000 1.000000
vt 1.000000 0.000000
vt 0.861328 1.869141
vt 0.136719 1.869141
vn 0.112600 -0.907600 0.404400
vn 0.036700 0.998500 -0.040400
vn -0.082100 -0.909500 0.407400
vn -0.057700 0.997600 -0.038900
s off
f 17/15/6 18/16/6 19/17/6
f 19/16/7 20/18/7 17/15/7
f 21/17/8 22/16/8 23/15/8
f 23/16/9 24/19/9 21/15/9
o cockpit_silver
v -0.699198 0.154137 0.167216
v -0.312558 0.587229 0.621176
v -0.312361 0.093829 -1.950350
v 0.721590 -0.322452 1.463999
v -0.294803 -0.487187 -1.182976
v 0.263434 -0.481667 -1.191579
v -0.674063 -0.336239 1.485480
v -0.278922 0.158724 2.530431
v 0.315475 0.593433 0.611510
v 0.349112 0.164929 2.520763
v 0.245891 0.099345 -1.958947
v 0.696423 0.167929 0.145723
vt -0.814453 4.900391
vt -0.080078 5.919922
vt 0.000000 1.000000
vt 1.000000 1.000000
vt 0.308594 2.908203
vt 0.689453 2.908203
vt -0.203125 -0.035156
vt -0.203125 2.035156
vt 0.000000 0.998047
vt 1.000000 0.998047
vt 1.080078 5.919922
vt 1.814453 4.900391
vn -0.660100 0.737700 -0.141600
vn 0.010800 -0.998300 0.058000
vn -0.882300 0.455700 0.117800
vn 0.876400 0.473000 0.090700
vn 0.640700 0.750600 -0.161600
s off
f 25/20/10 26/21/10 27/22/10
f 28/23/11 29/24/11 30/25/11
f 28/23/11 31/22/11 29/24/11
f 31/22/12 32/23/12 26/26/12
f 33/27/13 34/23/13 28/28/13
f 35/29/14 33/30/14 36/31/14
o cockpit
v 0.315474 0.593433 0.611510
v -0.278923 0.158724 2.530431
v 0.349111 0.164929 2.520762
v -0.312559 0.587229 0.621176
vt 0.984375 -0.136719
vt 0.000000 1.000000
vt 1.000000 1.000000
vt -0.023438 -0.136719
vn -0.006300 0.975700 0.219100
s off
f 37/32/15 38/33/15 39/34/15
f 37/32/15 40/35/15 38/33/15
o cockpit_orange
v 0.721590 -0.322452 1.464000
v 0.696423 0.167929 0.145724
v 0.315475 0.593433 0.611510
v -0.312558 0.587229 0.621176
v -0.699198 0.154137 0.167216
v -0.674063 -0.336239 1.485480
v -0.294803 -0.487187 -1.182976
v 0.263434 -0.481667 -1.191579
vt 0.000000 1.000000
vt 1.000000 0.000000
vt 1.000000 0.998047
vt 0.998047 1.000000
vt 0.998047 0.000000
vt 1.000000 1.000000
vn 0.823800 0.536300 0.183800
vn -0.828100 0.520000 0.209200
vn -0.930000 -0.349800 -0.112400
vn 0.932900 -0.331400 -0.141100
s off
f 41/36/16 42/37/16 43/38/16
f 44/39/17 45/36/17 46/40/17
f 47/41/18 46/37/18 45/36/18
f 42/40/19 41/36/19 48/39/19
