# Blender v2.78 (sub 0) OBJ File: ''
# www.blender.org
o pCube2_Untitled
v -0.954470 -0.494964 -1.015149
v -0.954471 -0.494965 1.042744
v 1.000528 0.460337 -1.015149
v 1.000528 -0.460337 -1.015149
v -0.954470 0.494965 -1.015149
v 1.000528 -0.460337 1.042744
v 1.000528 0.460337 1.042744
v -0.954471 0.494965 1.042744
v 0.245737 -1.215128 -0.799122
v 0.461765 -0.999100 -1.015149
v -0.234307 -1.215128 -0.799122
v -0.450335 -0.999100 -1.015149
v 0.245737 -1.215128 0.826717
v 0.461765 -0.999101 1.042744
v -0.234307 -1.215128 0.826717
v -0.450335 -0.999100 1.042744
v 0.245738 1.215128 -0.799122
v 0.461765 0.999100 -1.015149
v -0.234307 1.215128 -0.799122
v -0.450335 0.999101 -1.015149
v -0.234307 1.215128 0.826717
v -0.450335 0.999100 1.042744
v 0.245737 1.215128 0.826717
v 0.461765 0.999100 1.042744
vt 0.4600 0.0000
vt 0.5466 0.0000
vt 0.4600 0.2500
vt 0.5466 0.2500
vt 0.5838 0.0262
vt 0.5838 0.2238
vt 0.7959 0.2500
vt 0.7034 0.2500
vt 0.7959 0.0000
vt 0.7034 0.0000
vt 0.6662 0.2238
vt 0.6662 0.0262
vt 0.3750 0.3350
vt 0.6250 0.3284
vt 0.6250 0.4209
vt 0.5459 0.5000
vt 0.4534 0.5000
vt 0.3750 0.4216
vt 0.2900 0.2500
vt 0.2034 0.2500
vt 0.2900 0.0000
vt 0.2034 0.0000
vt 0.1662 0.2238
vt 0.1662 0.0262
vt 0.5459 0.7500
vt 0.4534 0.7500
vt 0.4162 0.7238
vt 0.4162 0.5262
vt 0.2907 0.0417
vt 0.2161 0.0417
vt 0.2907 0.2083
vt 0.2161 0.2083
vt 0.7867 0.0417
vt 0.7065 0.0417
vt 0.7867 0.2083
vt 0.7065 0.2083
vt 0.3750 0.8284
vt 0.3750 0.9150
vt 0.4600 1.0000
vt 0.6250 0.8291
vt 0.6250 0.9216
vt 0.5466 1.0000
vt 0.1250 0.0262
vt 0.1250 0.2238
vt 0.6250 0.9588
vt 0.5838 1.0000
vt 0.6250 0.2912
vt 0.3750 0.7912
vt 0.3750 0.4588
vn -0.7071 -0.7071 -0.0000
vn 0.7071 -0.7071 0.0000
vn -0.0000 -0.0000 1.0000
vn -0.7071 0.7071 0.0000
vn 0.7071 0.7071 0.0000
vn 1.0000 -0.0000 0.0000
vn -1.0000 -0.0000 -0.0000
vn -0.0000 -0.0000 -1.0000
vn 0.0000 -1.0000 -0.0000
vn -0.0000 1.0000 0.0000
vn 0.0000 -0.7071 -0.7071
vn 0.0000 -0.7071 0.7071
vn 0.0000 0.7071 -0.7071
vn 0.0000 0.7071 0.7071
s 1
f 1/1/1 12/2/1 2/3/1
f 2/3/1 12/2/1 16/4/1
f 12/2/1 11/5/1 16/4/1
f 11/5/1 15/6/1 16/4/1
f 6/7/2 14/8/2 4/9/2
f 4/9/2 14/8/2 10/10/2
f 14/8/2 13/11/2 10/10/2
f 13/11/2 9/12/2 10/10/2
f 2/3/3 16/4/3 8/13/3
f 16/4/3 14/14/3 8/13/3
f 14/14/3 6/15/3 8/13/3
f 6/15/3 7/16/3 8/13/3
f 7/16/3 24/17/3 8/13/3
f 24/17/3 22/18/3 8/13/3
f 8/19/4 22/20/4 5/21/4
f 5/21/4 22/20/4 20/22/4
f 22/20/4 21/23/4 20/22/4
f 21/23/4 19/24/4 20/22/4
f 3/25/5 18/26/5 7/16/5
f 7/16/5 18/26/5 24/17/5
f 18/26/5 17/27/5 24/17/5
f 17/27/5 23/28/5 24/17/5
f 4/29/6 3/30/6 6/31/6
f 6/31/6 3/30/6 7/32/6
f 5/33/7 1/34/7 8/35/7
f 8/35/7 1/34/7 2/36/7
f 20/37/8 18/26/8 5/38/8
f 5/38/8 18/26/8 1/39/8
f 18/26/8 3/25/8 1/39/8
f 3/25/8 4/40/8 1/39/8
f 4/40/8 10/41/8 1/39/8
f 10/41/8 12/42/8 1/39/8
f 11/5/9 9/12/9 15/6/9
f 15/6/9 9/12/9 13/11/9
f 17/43/10 19/24/10 23/44/10
f 23/44/10 19/24/10 21/23/10
f 10/41/11 9/45/11 12/42/11
f 12/42/11 9/45/11 11/46/11
f 13/47/12 14/14/12 15/6/12
f 15/6/12 14/14/12 16/4/12
f 17/27/13 18/26/13 19/48/13
f 19/48/13 18/26/13 20/37/13
f 21/49/14 22/18/14 23/28/14
f 23/28/14 22/18/14 24/17/14
