# Blender v2.76 (sub 0) OBJ File: ''
# www.blender.org
o metal
v 0.008009 1.786134 -0.745560
v 0.027443 2.645187 -3.665731
v -0.913714 1.220756 -1.891640
v 0.938867 1.214577 -1.881154
v 0.027443 2.645187 -3.665731
v 0.008009 1.786134 -0.745560
v 0.145243 -1.490655 -1.746878
v 0.931738 -0.923042 -1.884151
v -0.006163 -1.492329 -0.180110
v 0.931738 -0.923042 -1.884151
v 0.918294 -0.712699 0.610008
v -0.006163 -1.492329 -0.180110
v -0.037139 -0.360666 5.949219
v -0.934287 -0.706520 0.599521
v -0.006163 -1.492329 -0.180110
v -0.006163 -1.492329 -0.180110
v 0.918294 -0.712699 0.610008
v -0.037139 -0.360666 5.949219
v -0.006163 -1.492329 -0.180110
v -0.934287 -0.706520 0.599521
v -0.920843 -0.916863 -1.894638
v -0.006163 -1.492329 -0.180110
v -0.920843 -0.916863 -1.894638
v -0.139772 -1.489705 -1.748479
v -0.913714 1.220756 -1.891640
v -0.498492 1.287555 0.319706
v 0.008009 1.786134 -0.745560
v -0.913714 1.220756 -1.891640
v -0.928582 1.003575 0.601909
v -0.498492 1.287555 0.319706
v 0.008009 1.786134 -0.745560
v 0.499051 1.284228 0.325356
v 0.923999 0.997396 0.612396
v 0.008009 1.786134 -0.745560
v 0.923999 0.997396 0.612396
v 0.938867 1.214577 -1.881154
v -0.928582 1.003575 0.601909
v -0.033812 0.636889 5.950616
v -0.012163 1.069297 2.388570
v 0.931738 -0.923042 -1.884151
v -0.920843 -0.916863 -1.894638
v 0.013461 0.149931 -2.671679
v 0.923999 0.997396 0.612396
v -0.033812 0.636889 5.950616
v 0.717545 0.643891 -0.885623
v -0.012163 1.069297 2.388570
v -0.033812 0.636889 5.950616
v 0.923999 0.997396 0.612396
v -0.707516 0.648643 -0.893696
v -0.033812 0.636889 5.950616
v -0.928582 1.003575 0.601909
v 0.714216 -0.353665 -0.887012
v -0.037139 -0.360666 5.949219
v 0.918294 -0.712699 0.610008
v -0.934287 -0.706520 0.599521
v -0.037139 -0.360666 5.949219
v -0.710844 -0.348913 -0.895094
v 0.148312 -1.418718 -2.245548
v -0.920843 -0.916863 -1.894638
v 0.931738 -0.923042 -1.884151
v 0.148312 -1.418718 -2.245548
v -0.136703 -1.417768 -2.247149
v -0.920843 -0.916863 -1.894638
vt 0.500000 0.499023
vt 0.500000 2.120117
vt 1.000000 1.000000
vt 0.000000 1.000000
vt 0.562500 2.267578
vt 1.000000 2.339844
vt 0.500000 1.457031
vt 0.500000 -1.851562
vt 0.000000 2.339844
vt 0.436523 2.267578
vt 0.249023 2.166992
vt 0.499023 1.571289
vt 0.000000 2.338867
vt 0.749023 2.166992
vt 0.999023 2.338867
vt 0.999023 1.000000
vt 0.500000 -1.845703
vt 0.500000 0.064453
vt 3.005859 1.000000
vt 1.502930 -1.054688
vt 1.155273 -0.063477
vt 0.500000 -3.755859
vt -0.155273 -0.063477
vt 0.499023 5.755859
vt 1.155273 2.063477
vt -0.155273 2.063477
vt 0.000000 0.999023
vt 0.436523 1.353516
vt 1.000000 0.999023
vt 0.562500 1.353516
vn -0.682300 0.702600 0.202100
vn 0.684600 0.698000 0.209900
vn 0.590700 -0.804900 0.056200
vn 0.607500 -0.791300 0.070000
vn -0.564200 -0.812400 0.147100
vn 0.557100 -0.816100 0.153500
vn -0.613500 -0.787200 0.063100
vn -0.596700 -0.801000 0.049500
vn -0.598300 0.796400 0.088300
vn -0.516600 0.853200 0.071200
vn 0.451500 0.869500 0.200500
vn 0.585700 0.807200 0.073800
vn -0.289600 0.950400 0.113600
vn 0.002600 -0.590200 -0.807200
vn 0.689400 -0.720500 0.075000
vn 0.294700 0.948400 0.116900
vn -0.695000 -0.715900 0.067200
vn 0.694100 0.715700 0.077000
vn -0.690200 0.720300 0.069200
vn 0.006500 0.582300 -0.812900
s off
f 1/1/1 2/2/1 3/3/1
f 4/4/2 5/2/2 6/1/2
f 7/5/3 8/6/3 9/7/3
f 10/6/4 11/3/4 12/7/4
f 13/8/5 14/4/5 15/7/5
f 16/7/6 17/3/6 18/8/6
f 19/7/7 20/4/7 21/9/7
f 22/7/8 23/9/8 24/10/8
f 25/4/9 26/11/9 27/12/9
f 28/4/10 29/13/10 30/11/10
f 31/12/11 32/14/11 33/15/11
f 34/12/12 35/15/12 36/16/12
f 37/3/13 38/17/13 39/18/13
f 40/4/14 41/19/14 42/20/14
f 43/21/15 44/22/15 45/3/15
f 46/18/16 47/17/16 48/4/16
f 49/4/17 50/22/17 51/23/17
f 52/16/18 53/24/18 54/25/18
f 55/26/19 56/24/19 57/27/19
f 58/28/20 59/29/20 60/27/20
f 61/28/20 62/30/20 63/29/20
o metal_plate
v 0.938867 1.214576 -1.881153
v 0.717545 0.643890 -0.885623
v 0.013461 0.149931 -2.671679
v 0.013461 0.149931 -2.671679
v -0.913714 1.220755 -1.891640
v 0.938867 1.214576 -1.881153
v -0.707516 0.648643 -0.893696
v -0.913714 1.220755 -1.891640
v 0.013461 0.149931 -2.671679
v 0.714216 -0.353666 -0.887012
v 0.931738 -0.923043 -1.884151
v 0.013461 0.149931 -2.671679
v 0.013461 0.149931 -2.671679
v -0.920843 -0.916864 -1.894638
v -0.710844 -0.348913 -0.895094
v -0.710844 -0.348913 -0.895094
v 0.344342 -0.070978 1.676472
v -0.368186 -0.068601 1.672423
v -0.710844 -0.348913 -0.895094
v 0.714216 -0.353666 -0.887012
v 0.344342 -0.070978 1.676472
v -0.366763 0.358922 1.673033
v -0.707516 0.648643 -0.893696
v -1.777977 0.153430 -0.900443
v -0.368186 -0.068601 1.672423
v -0.366763 0.358922 1.673033
v -1.777977 0.153430 -0.900443
v -1.777977 0.153430 -0.900443
v -0.710844 -0.348913 -0.895094
v -0.368186 -0.068601 1.672423
v 0.717545 0.643890 -0.885623
v -0.366763 0.358922 1.673033
v 0.345770 0.356546 1.677056
v 0.717545 0.643890 -0.885623
v -0.707516 0.648643 -0.893696
v -0.366763 0.358922 1.673033
v 1.784679 0.141547 -0.880274
v 0.345770 0.356546 1.677056
v 0.344342 -0.070978 1.676472
v 1.784679 0.141547 -0.880274
v 0.717545 0.643890 -0.885623
v 0.345770 0.356546 1.677056
v 0.344342 -0.070978 1.676472
v 0.714216 -0.353666 -0.887012
v 1.784679 0.141547 -0.880274
vt -0.565430 0.027344
vt 0.000000 1.000000
vt 0.499023 -0.903320
vt 0.500000 1.682617
vt 1.000000 1.000000
vt 0.000000 0.999023
vt -0.565430 1.971680
vt 0.499023 2.903320
vt 0.999023 1.000000
vt 1.565430 0.027344
vt 1.565430 1.971680
vt 0.000000 1.069336
vt 0.725586 -0.760742
vt 0.273438 -0.760742
vt 1.000000 1.069336
vt 0.726562 3.635742
vt 0.500000 0.627930
vt 0.272461 3.635742
vt 0.273438 -0.792969
vt 0.725586 -0.792969
vt 0.501953 1.416992
vt 0.832031 -1.541992
vt 0.386719 -1.558594
vt 0.021484 0.963867
vn 0.799700 -0.580100 -0.154800
vn 0.006500 0.592500 -0.805600
vn -0.801700 -0.574800 -0.163900
vn 0.803500 0.575200 -0.153200
vn -0.797900 0.580600 -0.162300
vn -0.003900 -0.994000 0.109000
vn -0.415500 0.896100 0.156300
vn -0.876900 0.002200 0.480700
vn -0.421500 -0.893700 0.153800
vn 0.002700 0.993700 0.111800
vn 0.871400 -0.003600 0.490600
vn 0.419700 0.893300 0.161000
vn 0.413700 -0.896500 0.158600
s off
f 64/31/21 65/32/21 66/33/21
f 67/34/22 68/35/22 69/32/22
f 70/36/23 71/37/23 72/38/23
f 73/39/24 74/40/24 75/33/24
f 76/38/25 77/41/25 78/39/25
f 79/42/26 80/43/26 81/44/26
f 82/42/26 83/45/26 84/43/26
f 85/46/27 86/35/27 87/47/27
f 88/48/28 89/46/28 90/47/28
f 91/47/29 92/32/29 93/48/29
f 94/35/30 95/49/30 96/50/30
f 97/35/30 98/32/30 99/49/30
f 100/51/31 101/52/31 102/53/31
f 103/51/32 104/39/32 105/52/32
f 106/53/33 107/54/33 108/51/33
o metal_glass
v 0.499051 1.284228 0.325356
v 0.002346 1.784767 0.251982
v -0.012163 1.069297 2.388570
v 0.008009 1.786134 -0.745560
v 0.002346 1.784767 0.251982
v 0.499051 1.284228 0.325356
v -0.498492 1.287555 0.319706
v 0.002346 1.784767 0.251982
v 0.008009 1.786134 -0.745560
v -0.012163 1.069297 2.388570
v 0.002346 1.784767 0.251982
v -0.498492 1.287555 0.319706
vt 0.390625 1.000000
vt 0.531250 1.062500
vt 0.531250 0.347656
vt 0.531250 1.375000
vt 0.671875 1.000000
vn 0.671400 0.701400 0.239400
vn 0.709400 0.704700 0.005000
vn -0.704700 0.709500 -0.003000
vn -0.669400 0.705800 0.231800
s off
f 109/55/34 110/56/34 111/57/34
f 112/58/35 113/56/35 114/55/35
f 115/59/36 116/56/36 117/58/36
f 118/57/37 119/56/37 120/59/37
o metal_bars
v 0.359618 0.146300 -0.888347
v 0.714216 -0.353666 -0.887012
v 0.013461 0.149931 -2.671678
v 0.013461 0.149931 -2.671678
v 0.717545 0.643890 -0.885623
v 0.359618 0.146300 -0.888347
v 0.013461 0.149931 -2.671678
v -0.710844 -0.348913 -0.895094
v -0.352916 0.148677 -0.892370
v -0.352916 0.148677 -0.892370
v -0.707516 0.648643 -0.893696
v 0.013461 0.149931 -2.671678
v -0.913714 1.220755 -1.891640
v 0.027443 2.645186 -3.665731
v 0.938867 1.214576 -1.881154
v 0.923999 0.997396 0.612396
v 0.499051 1.284228 0.325356
v -0.012163 1.069297 2.388570
v -0.012163 1.069297 2.388570
v -0.498492 1.287555 0.319706
v -0.928582 1.003575 0.601909
v 0.717545 0.643890 -0.885623
v -0.033812 0.636889 5.950617
v -0.707516 0.648643 -0.893696
vt 0.500000 1.072266
vt 0.000000 1.000000
vt 0.500000 2.908203
vt 1.000000 1.000000
vt 3.046875 1.000000
vt 1.523438 -2.701172
vt 0.000000 0.998047
vt 0.998047 0.998047
vt -0.111328 -2.226562
vt 1.111328 -2.226562
vt 0.992188 10.488281
vt 1.984375 0.998047
vn 0.806000 0.571200 -0.155300
vn 0.802200 -0.576100 -0.156900
vn -0.800300 0.576600 -0.164400
vn -0.804100 -0.570800 -0.166000
vn 0.000900 -0.780000 -0.625800
vn 0.450400 0.869600 0.202200
vn -0.446900 0.872600 0.197100
vn -0.003300 -1.000000 -0.001400
s off
f 121/60/38 122/61/38 123/62/38
f 124/62/39 125/63/39 126/60/39
f 127/62/40 128/63/40 129/60/40
f 130/60/41 131/61/41 132/62/41
f 133/64/42 134/65/42 135/66/42
f 136/61/43 137/67/43 138/68/43
f 139/69/44 140/61/44 141/67/44
f 142/66/45 143/70/45 144/71/45
o metal_wing
v 2.003311 0.996370 -1.234123
v 4.490460 2.125576 0.634149
v 2.070590 1.137566 -0.449739
v -0.710844 -0.348913 -0.895093
v -0.037139 -0.360666 5.949219
v 0.714216 -0.353666 -0.887012
v -0.002756 -2.773045 -1.535715
v -0.139772 -1.489705 -1.748479
v -0.136703 -1.417768 -2.247149
v 2.077705 1.210481 -1.660943
v 4.490460 2.125576 0.634149
v 2.003311 0.996370 -1.234123
v 0.148312 -1.418718 -2.245548
v 0.145243 -1.490656 -1.746878
v -0.002756 -2.773045 -1.535715
v -0.139772 -1.489705 -1.748479
v -0.920843 -0.916864 -1.894638
v -0.136703 -1.417768 -2.247149
v -2.068743 -0.843762 -0.475939
v -4.500746 -1.834702 0.577751
v -2.062109 -0.913355 -1.687321
v 0.148312 -1.418718 -2.245548
v 0.931738 -0.923043 -1.884151
v 0.145243 -1.490656 -1.746878
v -1.986862 1.009679 -1.256723
v -4.487435 2.155519 0.583332
v -2.054974 1.224264 -1.684348
v -2.062087 1.151350 -0.473153
v -4.487435 2.155519 0.583332
v -1.986862 1.009679 -1.256723
v -1.992568 -0.700417 -1.259112
v -4.500746 -1.834702 0.577751
v -2.068743 -0.843762 -0.475939
v -2.062109 -0.913355 -1.687321
v -4.500746 -1.834702 0.577751
v -1.992568 -0.700417 -1.259112
v 2.063936 -0.857545 -0.452534
v 4.477147 -1.864645 0.628586
v 1.997607 -0.713725 -1.236520
v 1.997607 -0.713725 -1.236520
v 4.477147 -1.864645 0.628586
v 2.070574 -0.927139 -1.663932
v -2.054974 1.224264 -1.684348
v -4.487435 2.155519 0.583332
v -2.062087 1.151350 -0.473153
v 2.070590 1.137566 -0.449739
v 4.490460 2.125576 0.634149
v 2.077705 1.210481 -1.660943
v 2.070574 -0.927139 -1.663932
v 4.477147 -1.864645 0.628586
v 2.063936 -0.857545 -0.452534
vt 1.000000 0.999023
vt 1.000000 0.000000
vt 2.118164 0.845703
vt 0.000000 0.999023
vt 0.499023 5.778320
vt 1.465820 2.542969
vt 0.999023 1.000000
vt 0.000000 1.000000
vt 0.999023 0.999023
vt -0.465820 3.367188
vt 0.598633 -0.876953
vt 0.400391 -0.223633
vt 0.999023 0.000000
vt -0.061523 1.000000
vt 2.188477 0.845703
vt 0.819336 1.180664
vt 1.023438 0.870117
vt 0.179688 1.162109
vt 1.000000 1.000000
vt -0.023438 0.854492
vn 0.319300 -0.937100 0.141300
vn 0.003300 1.000000 0.001400
vn -0.993700 -0.109700 -0.021900
vn 0.566900 -0.771700 -0.288300
vn 0.993100 -0.116400 -0.010700
vn -0.572300 -0.811100 -0.120500
vn 0.397000 -0.916200 0.054800
vn 0.568200 -0.814900 -0.114100
vn -0.568800 -0.767900 -0.294700
vn -0.327100 -0.934900 0.137600
vn -0.320900 0.936700 0.140200
vn -0.563600 0.772500 -0.292600
vn 0.325500 0.934500 0.143900
vn 0.572000 0.768700 -0.286200
vn 0.403100 0.913300 0.057400
vn -0.397700 0.916000 0.052800
vn -0.403700 -0.913500 0.050300
s off
f 145/72/46 146/73/46 147/74/46
f 148/75/47 149/76/47 150/72/47
f 151/77/48 152/78/48 153/75/48
f 154/79/49 155/73/49 156/72/49
f 157/80/50 158/79/50 159/81/50
f 160/78/51 161/82/51 162/75/51
f 163/72/52 164/73/52 165/79/52
f 166/80/53 167/83/53 168/79/53
f 169/78/54 170/84/54 171/85/54
f 172/86/55 173/84/55 174/78/55
f 175/72/56 176/75/56 177/87/56
f 178/88/57 179/75/57 180/72/57
f 181/89/58 182/90/58 183/75/58
f 184/75/59 185/90/59 186/91/59
f 187/79/60 188/73/60 189/78/60
f 190/90/61 191/73/61 192/79/61
f 193/79/62 194/73/62 195/72/62
o metal_vent
v -0.710844 -0.348913 -0.895094
v -0.707516 0.648642 -0.893696
v -0.352916 0.148676 -0.892370
v -0.710844 -0.348913 -0.895094
v -1.777977 0.153429 -0.900443
v -0.707516 0.648642 -0.893696
v -0.368186 -0.068602 1.672423
v 0.345770 0.356545 1.677056
v -0.366763 0.358922 1.673033
v -0.368186 -0.068602 1.672423
v 0.344342 -0.070979 1.676472
v 0.345770 0.356545 1.677056
v 0.714216 -0.353667 -0.887012
v 0.717545 0.643889 -0.885623
v 1.784679 0.141547 -0.880274
v 0.714216 -0.353667 -0.887012
v 0.359618 0.146300 -0.888346
v 0.717545 0.643889 -0.885623
vt 1.353516 2.931641
vt 1.353516 -0.931641
vt 0.000000 1.000000
vt 5.494141 1.000000
vt 4.007812 -3.007812
vt 0.000000 -3.007812
vt 4.007812 1.000000
vt 4.509766 3.103516
vt 4.509766 -1.103516
vt 5.986328 1.000000
vn 0.005700 0.001400 -1.000000
vn -0.005700 -0.001400 1.000000
vn -0.005700 -0.001300 1.000000
s off
f 196/92/63 197/93/63 198/94/63
f 199/92/63 200/95/63 201/93/63
f 202/94/64 203/96/64 204/97/64
f 205/94/65 206/98/65 207/96/65
f 208/99/63 209/100/63 210/94/63
f 211/99/63 212/101/63 213/100/63
o metal_red
v 2.070590 1.137565 -0.449739
v 0.923999 0.997395 0.612396
v 0.717545 0.643889 -0.885623
v 2.070590 1.137565 -0.449739
v 0.717545 0.643889 -0.885623
v 2.003311 0.996369 -1.234123
v -2.062087 1.151349 -0.473153
v -0.928582 1.003574 0.601909
v -0.913714 1.220754 -1.891640
v 2.003311 0.996369 -1.234123
v 0.717545 0.643889 -0.885623
v 0.938867 1.214575 -1.881153
v 2.003311 0.996369 -1.234123
v 0.938867 1.214575 -1.881153
v 2.077705 1.210480 -1.660943
v -2.062087 1.151349 -0.473153
v -0.913714 1.220754 -1.891640
v -2.054974 1.224264 -1.684348
v 2.063936 -0.857545 -0.452534
v 0.918294 -0.712700 0.610008
v 0.931739 -0.923043 -1.884151
v 2.063936 -0.857545 -0.452534
v 0.931739 -0.923043 -1.884151
v 2.070574 -0.927139 -1.663933
v -0.006163 -1.492330 -0.180110
v -0.002755 -2.773045 -1.535715
v 0.145243 -1.490656 -1.746878
v -0.139772 -1.489706 -1.748479
v -0.002755 -2.773045 -1.535715
v -0.006163 -1.492330 -0.180110
v -0.136703 -1.417769 -2.247149
v 0.013253 -2.697982 -4.314466
v -0.002755 -2.773045 -1.535715
v -0.002755 -2.773045 -1.535715
v 0.013253 -2.697982 -4.314466
v 0.148312 -1.418718 -2.245548
v -2.068743 -0.843762 -0.475939
v -0.934287 -0.706521 0.599521
v -0.710844 -0.348913 -0.895094
v -0.136703 -1.417769 -2.247149
v 0.148312 -1.418718 -2.245548
v 0.013253 -2.697982 -4.314466
v -1.992568 -0.700417 -1.259112
v -0.710844 -0.348913 -0.895094
v -0.920843 -0.916864 -1.894638
v -2.068743 -0.843762 -0.475939
v -0.710844 -0.348913 -0.895094
v -1.992568 -0.700417 -1.259112
v -1.992568 -0.700417 -1.259112
v -0.920843 -0.916864 -1.894638
v -2.062109 -0.913356 -1.687321
v -2.054974 1.224264 -1.684348
v -0.913714 1.220754 -1.891640
v -0.707516 0.648642 -0.893696
v -2.054974 1.224264 -1.684348
v -0.707516 0.648642 -0.893696
v -1.986862 1.009678 -1.256724
v -1.986862 1.009678 -1.256724
v -0.928582 1.003574 0.601909
v -2.062087 1.151349 -0.473153
v -1.986862 1.009678 -1.256724
v -0.707516 0.648642 -0.893696
v -0.928582 1.003574 0.601909
v 1.997607 -0.713725 -1.236519
v 0.918294 -0.712700 0.610008
v 2.063936 -0.857545 -0.452534
v 1.997607 -0.713725 -1.236519
v 0.714216 -0.353667 -0.887012
v 0.918294 -0.712700 0.610008
v 2.070574 -0.927139 -1.663933
v 0.931739 -0.923043 -1.884151
v 0.714216 -0.353667 -0.887012
v 2.070574 -0.927139 -1.663933
v 0.714216 -0.353667 -0.887012
v 1.997607 -0.713725 -1.236519
v -2.062109 -0.913356 -1.687321
v -0.934287 -0.706521 0.599521
v -2.068743 -0.843762 -0.475939
v -2.062109 -0.913356 -1.687321
v -0.920843 -0.916864 -1.894638
v -0.934287 -0.706521 0.599521
v 2.077705 1.210480 -1.660943
v 0.923999 0.997395 0.612396
v 2.070590 1.137565 -0.449739
v 2.077705 1.210480 -1.660943
v 0.938867 1.214575 -1.881153
v 0.923999 0.997395 0.612396
vt -0.617188 1.769531
vt 0.000000 2.308594
vt 0.117188 1.494141
vt -0.556641 1.320312
vt 1.617188 0.218750
vt 1.000000 -0.339844
vt 1.000000 0.998047
vt 0.000000 1.000000
vt -0.617188 1.113281
vt 1.617188 0.888672
vt -0.617188 1.779297
vt 0.000000 2.339844
vt -0.617188 1.109375
vt 0.498047 5.644531
vt 0.498047 -2.058594
vt 0.998047 1.000000
vt 0.998047 -0.587891
vt 0.500000 -10.582031
vt 0.000000 -0.587891
vt 1.617188 0.236328
vt 1.000000 -0.292969
vt 0.880859 0.523438
vt 0.998047 0.998047
vt 0.000000 0.998047
vt 0.498047 11.179688
vt 1.556641 0.685547
vt 1.000000 1.000000
vt 1.617188 0.884766
vt 1.617188 1.113281
vt 0.880859 1.494141
vt 1.556641 1.320312
vt 0.998047 2.308594
vt 1.617188 1.769531
vt -0.556641 0.685547
vt 0.000000 -0.292969
vt -0.617188 0.236328
vt 0.117188 0.523438
vt -0.617188 0.884766
vt 1.617188 1.109375
vt 1.000000 2.339844
vt 1.617188 1.779297
vt -0.617188 0.888672
vt 0.000000 -0.339844
vt -0.617188 0.218750
vn 0.284500 -0.941100 0.182900
vn 0.297800 -0.943700 0.144300
vn 0.047300 0.995100 0.087000
vn 0.110300 -0.872700 -0.475700
vn 0.081000 -0.896500 -0.435600
vn 0.014000 0.998100 0.060200
vn -0.048200 -0.995300 0.083700
vn -0.014700 -0.998300 0.057300
vn 0.990500 -0.098600 0.095600
vn -0.992200 -0.091900 0.084400
vn -0.994700 -0.102800 -0.008500
vn 0.994000 -0.109400 0.002800
vn -0.286500 0.940600 0.182200
vn 0.005800 0.850400 -0.526200
vn -0.104900 0.874000 -0.474600
vn -0.299400 0.943300 0.143500
vn -0.076100 0.897700 -0.434000
vn -0.090100 -0.871900 -0.481300
vn -0.130900 -0.894300 -0.427900
vn -0.263700 -0.953300 0.147000
vn -0.313100 -0.933400 0.175200
vn 0.262000 0.952900 0.152600
vn 0.311100 0.932900 0.181300
vn 0.095500 0.873300 -0.477800
vn 0.135800 0.895500 -0.423900
vn 0.065900 -0.996200 0.057600
vn 0.012200 -0.996400 0.084100
vn -0.066600 0.996000 0.059600
vn -0.013200 0.996100 0.086700
s off
f 214/102/66 215/103/66 216/104/66
f 217/102/67 218/104/67 219/105/67
f 220/106/68 221/107/68 222/108/68
f 223/105/69 224/104/69 225/109/69
f 226/105/70 227/109/70 228/110/70
f 229/106/71 230/108/71 231/111/71
f 232/112/72 233/113/72 234/109/72
f 235/112/73 236/109/73 237/114/73
f 238/115/74 239/116/74 240/109/74
f 241/117/75 242/116/75 243/115/75
f 244/118/76 245/119/76 246/116/76
f 247/116/77 248/119/77 249/120/77
f 250/121/78 251/122/78 252/123/78
f 253/124/79 254/125/79 255/126/79
f 256/127/80 257/123/80 258/128/80
f 259/121/81 260/123/81 261/127/81
f 262/127/82 263/128/82 264/129/82
f 265/130/83 266/117/83 267/131/83
f 268/130/84 269/131/84 270/132/84
f 271/132/85 272/133/85 273/134/85
f 274/132/86 275/131/86 276/133/86
f 277/135/87 278/136/87 279/137/87
f 280/135/88 281/138/88 282/136/88
f 283/139/89 284/109/89 285/138/89
f 286/139/90 287/138/90 288/135/90
f 289/140/91 290/141/91 291/142/91
f 292/140/92 293/108/92 294/141/92
f 295/143/93 296/144/93 297/145/93
f 298/143/94 299/125/94 300/144/94
